<svg xmlns="http://www.w3.org/2000/svg" viewBox="0 0 1200 700">
  <rect width="1200" height="700" rx="36" fill="#050505"/>
  <rect x="32" y="32" width="1136" height="636" rx="28" fill="#0d0d0d" stroke="rgba(255,255,255,.12)"/>
  <rect x="64" y="64" width="1072" height="154" rx="32" fill="#111"/>
  <rect x="96" y="96" width="140" height="22" rx="11" fill="#d4d4d4" opacity=".32"/>
  <rect x="96" y="138" width="300" height="54" rx="20" fill="#fff" opacity=".94"/>
  <rect x="64" y="250" width="1072" height="138" rx="28" fill="#111"/>
  <rect x="92" y="278" width="154" height="84" rx="22" fill="#161616"/>
  <rect x="262" y="278" width="154" height="84" rx="22" fill="#161616"/>
  <rect x="432" y="278" width="154" height="84" rx="22" fill="#161616"/>
  <rect x="602" y="278" width="154" height="84" rx="22" fill="#161616"/>
  <rect x="772" y="278" width="154" height="84" rx="22" fill="#161616"/>
  <rect x="942" y="278" width="154" height="84" rx="22" fill="#161616"/>
  <rect x="64" y="420" width="1072" height="208" rx="32" fill="#101010"/>
  <rect x="96" y="456" width="220" height="28" rx="14" fill="#d4d4d4" opacity=".25"/>
  <rect x="96" y="506" width="1000" height="42" rx="18" fill="#151515"/>
  <rect x="96" y="566" width="1000" height="42" rx="18" fill="#151515"/>
</svg>
